Description

Sinopse e detalhes

Carlos (Nuno Leal Maia) e Solange (Sônia Braga) se amam desde jovens e, após um casto namoro, se casaram. Na noite de núpcias, Solange se recusa a fazer amor com ele. Primeiro ele implora, então em um acesso de raiva a estupra. Solange afirma que o adora, mas nos meses que se seguiram ao casamento ela não pode ser tocada por Carlos. Para provar a si mesma que não é frígida, começa uma rotina diária de seduzir homens em coletivos, homens que ela nunca viu nem verá novamente e nem mesmo sabe seus nomes. Além disto, ela tem relações com o melhor amigo de Carlos e até mesmo com seu sogro (Jorge Dória). Carlos entende que ela é infiel e, armado, confronta Solange. Enquanto isso, ela busca ajuda psiquiátrica, pois não sente nenhum remorso.


Format : Matroska
Format version : Version 2
File size : 682 MiB
Duration : 1h 36mn
Overall bit rate : 993 Kbps
Encoded date : UTC 2013-05-13 13:06:36
Writing application : mkvmerge v5.8.0 ('No Sleep / Pillow') built on Sep 2 2012 15:37:04
Writing library : libebml v1.2.3 + libmatroska v1.3.0

Video
ID : 1
Format : AVC
Format/Info : Advanced Video Codec
Format profile : High@L4.1
Format settings, CABAC : Yes
Format settings, ReFrames : 4 frames
Muxing mode : Header stripping
Codec ID : V_MPEG4/ISO/AVC
Duration : 1h 36mn
Bit rate : 717 Kbps
Width : 720 pixels
Height : 400 pixels
Display aspect ratio : 16:9
Frame rate mode : Constant
Frame rate : 23.976 fps
Color space : YUV
Chroma subsampling : 4:2:0
Bit depth : 8 bits
Scan type : Progressive
Bits/(Pixel*Frame) : 0.104
Stream size : 492 MiB (72%)
Title : 1978 - A Dama do Lotação( Sônia Braga ) - ( by fantasma )
Writing library : x264 core 130 r2273 b3065e6
Encoding settings : cabac=1 / ref=3 / deblock=1:0:0 / analyse=0x3:0x113 / me=hex / subme=7 / psy=1 / psy_rd=1.00:0.00 / mixed_ref=1 / me_range=16 / chroma_me=1 / trellis=1 / 8x8dct=1 / cqm=0 / deadzone=21,11 / fast_pskip=1 / chroma_qp_offset=-2 / threads=3 / lookahead_threads=1 / sliced_threads=0 / nr=0 / decimate=1 / interlaced=0 / bluray_compat=0 / constrained_intra=0 / bframes=3 / b_pyramid=2 / b_adapt=1 / b_bias=0 / direct=1 / weightb=1 / open_gop=0 / weightp=2 / keyint=240 / keyint_min=23 / scenecut=40 / intra_refresh=0 / rc_lookahead=40 / rc=crf / mbtree=1 / crf=23.0 / qcomp=0.60 / qpmin=0 / qpmax=69 / qpstep=4 / vbv_maxrate=62500 / vbv_bufsize=78125 / crf_max=0.0 / nal_hrd=none / ip_ratio=1.40 / aq=1:1.00
Language : Portuguese
Default : Yes
Forced : No

Audio
ID : 2
Format : AC-3
Format/Info : Audio Coding 3
Mode extension : CM (complete main)
Format settings, Endianness : Big
Muxing mode : Header stripping
Codec ID : A_AC3
Duration : 1h 36mn
Bit rate mode : Constant
Bit rate : 256 Kbps
Channel(s) : 2 channels
Channel positions : Front: L R
Sampling rate : 48.0 KHz
Bit depth : 16 bits
Compression mode : Lossy
Stream size : 176 MiB (26%)
Title : by fantasma
Language : Portuguese
Default : Yes
Forced : No

Text
ID : 3
Format : UTF-8
Codec ID : S_TEXT/UTF8
Codec ID/Info : UTF-8 Plain Text
Title : Credito
Language : Portuguese
Default : Yes
Forced : No

Menu
00:00:00.000 : en:Chapter 01
00:04:59.834 : en:Chapter 02
00:09:59.601 : en:Chapter 03
00:14:59.901 : en:Chapter 04
00:19:59.668 : en:Chapter 05
00:24:59.968 : en:Chapter 06
00:29:59.602 : en:Chapter 07
00:34:59.902 : en:Chapter 08
00:39:59.669 : en:Chapter 09
00:44:59.436 : en:Chapter 10
00:49:59.469 : en:Chapter 11
00:52:36.444 : en:Chapter 01
00:57:36.211 : en:Chapter 02
01:02:36.511 : en:Chapter 03
01:07:36.278 : en:Chapter 04
01:12:36.311 : en:Chapter 05
01:17:36.078 : en:Chapter 06
01:22:36.378 : en:Chapter 07
01:27:36.145 : en:Chapter 08
01:32:35.912 : en:Chapter 09
